<svg width="72" height="92" viewBox="0 0 72 92" fill="none" xmlns="http://www.w3.org/2000/svg">
<path opacity="0.15" d="M71.936 75.104V92H4.224V78.56L38.784 45.92C42.4533 42.4213 44.928 39.4347 46.208 36.96C47.488 34.4 48.128 31.8827 48.128 29.408C48.128 25.824 46.8907 23.0933 44.416 21.216C42.0267 19.2533 38.4853 18.272 33.792 18.272C29.8667 18.272 26.3253 19.04 23.168 20.576C20.0107 22.0267 17.3653 24.2453 15.232 27.232L0.128 17.504C3.62667 12.2987 8.448 8.24533 14.592 5.34399C20.736 2.35733 27.776 0.863998 35.712 0.863998C42.368 0.863998 48.1707 1.97333 53.12 4.19199C58.1547 6.32533 62.0373 9.39733 64.768 13.408C67.584 17.3333 68.992 21.984 68.992 27.36C68.992 32.224 67.968 36.7893 65.92 41.056C63.872 45.3227 59.904 50.1867 54.016 55.648L33.408 75.104H71.936Z" fill="#2D3E74"/>
</svg>
