<svg width="73" height="92" viewBox="0 0 73 92" fill="none" xmlns="http://www.w3.org/2000/svg">
<path opacity="0.15" d="M47.848 36.88C55.6987 38.16 61.7147 41.104 65.896 45.712C70.0773 50.2347 72.168 55.8667 72.168 62.608C72.168 67.8133 70.8027 72.6347 68.072 77.072C65.3413 81.424 61.16 84.9227 55.528 87.568C49.9813 90.2133 43.1547 91.536 35.048 91.536C28.7333 91.536 22.504 90.7253 16.36 89.104C10.3013 87.3973 5.13867 85.008 0.872 81.936L8.936 66.064C12.3493 68.624 16.2747 70.6293 20.712 72.08C25.2347 73.4453 29.8427 74.128 34.536 74.128C39.7413 74.128 43.8373 73.1467 46.824 71.184C49.8107 69.136 51.304 66.2773 51.304 62.608C51.304 55.2693 45.7147 51.6 34.536 51.6H25.064V37.904L43.496 17.04H5.352V0.399994H68.072V13.84L47.848 36.88Z" fill="#2D3E74"/>
</svg>
