<svg width="22" height="20" viewBox="0 0 22 20" fill="none" xmlns="http://www.w3.org/2000/svg">
<path d="M10.0525 0.808147C10.3585 -0.098909 11.6415 -0.0989079 11.9475 0.808148L13.8014 6.30249C13.9386 6.70905 14.3198 6.98278 14.7489 6.98278H20.6655C21.6434 6.98278 22.04 8.2416 21.2388 8.80215L16.5179 12.1051C16.1541 12.3596 16.0017 12.8235 16.1436 13.2441L17.962 18.6334C18.2707 19.5481 17.2323 20.3259 16.4413 19.7724L11.5733 16.3666C11.229 16.1258 10.771 16.1258 10.4267 16.3666L5.55873 19.7724C4.76773 20.3259 3.72932 19.5481 4.03796 18.6334L5.85637 13.2441C5.99832 12.8235 5.8459 12.3596 5.48212 12.1051L0.761202 8.80215C-0.0400119 8.2416 0.356625 6.98278 1.33446 6.98278H7.25109C7.68017 6.98278 8.06142 6.70905 8.1986 6.30249L10.0525 0.808147Z" fill="#ffb500"/>
</svg>
